<?xml version="1.0" standalone="no"?>
<!DOCTYPE svg PUBLIC "-//W3C//DTD SVG 20010904//EN"
 "http://www.w3.org/TR/2001/REC-SVG-20010904/DTD/svg10.dtd">
<svg version="1.0" xmlns="http://www.w3.org/2000/svg"
 width="512.000000pt" height="512.000000pt" viewBox="0 0 512.000000 512.000000"
 preserveAspectRatio="xMidYMid meet">
<metadata>
Created by potrace 1.11, written by Peter Selinger 2001-2013
</metadata>
<g transform="translate(0.000000,512.000000) scale(0.100000,-0.100000)"
fill="#000000" stroke="none">
<path d="M2233 5019 c-99 -18 -177 -81 -263 -212 -172 -260 -204 -500 -104
-780 30 -82 154 -331 185 -371 52 -66 208 -72 394 -15 89 27 127 33 200 34 80
0 107 -5 249 -49 l159 -50 41 23 c252 142 460 335 550 510 78 152 99 223 100
333 1 91 0 98 -29 139 -18 26 -50 53 -80 68 -49 26 -54 26 -335 32 -173 4
-307 11 -340 19 -87 20 -184 69 -335 172 -187 126 -292 165 -392 147z"/>
<path d="M1269 3842 c-24 -21 -32 -39 -36 -73 -8 -67 13 -93 95 -120 78 -25
182 -78 249 -125 l46 -33 -29 -6 c-48 -11 -202 -54 -305 -86 -130 -40 -158
-73 -137 -160 8 -29 20 -47 42 -60 39 -24 59 -24 132 1 198 69 424 118 424 93
0 -6 -37 -41 -82 -79 -46 -38 -150 -134 -232 -214 -398 -389 -625 -752 -702
-1125 -25 -123 -25 -357 0 -475 57 -268 214 -528 467 -777 131 -130 233 -203
384 -278 309 -154 653 -225 1090 -226 361 0 604 40 894 147 200 74 361 174
504 313 376 365 439 907 178 1531 -171 408 -493 800 -1077 1312 -14 12 -61 24
-150 38 -71 11 -169 32 -219 47 -123 37 -233 37 -365 0 -116 -33 -227 -44
-299 -28 -79 17 -201 82 -362 194 -173 120 -243 159 -339 192 -97 33 -132 32
-171 -3z"/>
</g>
</svg>
