<svg width="179" height="34" viewBox="0 0 179 34" xmlns="http://www.w3.org/2000/svg" xmlns:xlink="http://www.w3.org/1999/xlink"><title>BD6FD9FE-AE76-42B8-A2BB-804167031BB2</title><defs><path id="a" d="M21.504.065H.207v33.06h21.297V.066z"/></defs><g fill="none" fill-rule="evenodd"><path d="M132.718 22.654v5.217c0 .618-.283 1.192-.756 1.54-.63.458-2.868 1.958-5.22 1.958-2.235 0-4.844-1.183-4.844-4.52 0-2.365 1.297-3.358 4.785-3.665l6.035-.53zm1.942 8.262v-.03l.007-11.956c0-4.373-1.8-6.077-6.42-6.077-2.568 0-4.406.492-5.495.905l-.45.17v1.98l.936-.35c.78-.292 2.446-.782 4.823-.782 3.702 0 4.66.9 4.66 4.38v1.54l-6.205.543c-3.05.268-6.554 1.148-6.554 5.607 0 4.472 3.406 6.473 6.78 6.473 2.55 0 4.83-1.284 6-2.08v.225c0 .763.62 1.383 1.4 1.383l2.828-.14V31.1l-2.215-.162c-.04-.008-.07-.015-.093-.022z" fill="#525252"/><path d="M132.45 22.946l-5.743.504c-3.352.295-4.54 1.184-4.54 3.397 0 3.14 2.464 4.254 4.574 4.254 2.273 0 4.45-1.46 5.064-1.908.404-.296.646-.79.646-1.32v-4.926zm-5.71 8.69c-2.356 0-5.11-1.254-5.11-4.79 0-2.51 1.41-3.612 5.03-3.93l6.325-.554v5.51c0 .7-.323 1.357-.866 1.753-.647.472-2.945 2.012-5.38 2.012zm1.32-17.128c3.87 0 4.928 1 4.928 4.647v1.786l-6.45.566c-3.12.274-6.31 1.124-6.31 5.34 0 4.288 3.272 6.207 6.513 6.207 2.493 0 4.735-1.275 5.85-2.035l.418-.286v.733c0 .615.508 1.115 1.133 1.115l2.56-.128V31.35l-2-.15c-.05-.01-.085-.018-.112-.026l-.196-.054.007-12.19c0-4.235-1.668-5.81-6.153-5.81-2.528 0-4.332.484-5.4.89l-.277.104v1.408l.574-.215c.8-.298 2.5-.8 4.917-.8zm-1.32 19.08c-3.507 0-7.047-2.084-7.047-6.74 0-4.678 3.633-5.597 6.8-5.876l5.96-.522v-1.295c0-3.342-.822-4.11-4.392-4.11-2.332 0-3.964.478-4.73.764l-1.295.485v-2.55l.622-.237c1.11-.42 2.98-.923 5.59-.923 4.75 0 6.687 1.838 6.687 6.345l-.005 11.752 2.306.17v2.11l-3.08.153h-.002c-.844 0-1.536-.605-1.662-1.393-1.255.795-3.388 1.866-5.75 1.866zM13.025 22.654v5.217c0 .618-.283 1.192-.757 1.54-.63.458-2.867 1.958-5.22 1.958-2.234 0-4.843-1.183-4.843-4.52 0-2.365 1.297-3.358 4.785-3.665l6.035-.53zm1.942 8.262v-.03l.007-11.956c0-4.373-1.8-6.077-6.42-6.077-2.568 0-4.406.492-5.496.905l-.45.17v1.98l.937-.35c.78-.292 2.446-.782 4.823-.782 3.7 0 4.658.9 4.658 4.38v1.54l-6.204.543c-3.05.268-6.554 1.148-6.554 5.607 0 4.472 3.405 6.473 6.78 6.473 2.55 0 4.83-1.284 6-2.08v.225c0 .763.62 1.383 1.4 1.383l2.827-.14V31.1l-2.216-.162c-.04-.008-.07-.015-.093-.022z" fill="#525252"/><path d="M12.757 22.946l-5.744.504c-3.352.295-4.54 1.184-4.54 3.397 0 3.14 2.465 4.254 4.575 4.254 2.272 0 4.45-1.46 5.063-1.908.405-.296.647-.79.647-1.32v-4.926zm-5.71 8.69c-2.356 0-5.11-1.254-5.11-4.79 0-2.51 1.41-3.612 5.03-3.93l6.325-.554v5.51c0 .7-.323 1.357-.866 1.753-.646.472-2.945 2.012-5.378 2.012zm1.32-17.128c3.868 0 4.927 1 4.927 4.647v1.786l-6.45.566c-3.12.274-6.31 1.124-6.31 5.34 0 4.288 3.272 6.207 6.514 6.207 2.49 0 4.734-1.275 5.848-2.035l.42-.286v.733c0 .615.507 1.115 1.132 1.115l2.56-.128V31.35l-2.002-.15c-.048-.01-.085-.018-.11-.026l-.197-.054.006-12.19c0-4.235-1.667-5.81-6.152-5.81-2.528 0-4.332.484-5.4.89l-.277.104v1.408l.574-.215c.8-.298 2.5-.8 4.917-.8zm-1.32 19.08C3.54 33.588 0 31.504 0 26.848c0-4.678 3.633-5.597 6.8-5.876l5.96-.522v-1.295c0-3.342-.822-4.11-4.393-4.11-2.332 0-3.964.478-4.73.764l-1.296.485v-2.55l.624-.237c1.11-.42 2.98-.923 5.59-.923 4.75 0 6.687 1.838 6.687 6.345l-.004 11.752 2.307.17v2.11l-3.082.153c-.843 0-1.535-.605-1.66-1.393-1.256.795-3.39 1.866-5.752 1.866zM115.757 22.882c0 3.106-.89 8.316-6.847 8.316-2.133 0-3.703-.483-4.796-1.478-.38-.344-.596-.86-.596-1.416v-10.83c0-.57.22-1.09.608-1.43 1.093-.96 2.658-1.428 4.784-1.428 4.607 0 6.847 2.704 6.847 8.266m-6.847-10.15c-2.25 0-4.024.46-5.392 1.404V7.072c0-.725-.59-1.315-1.333-1.315l-2.635.13v1.48l2.064.152c.018.003.035.006.048.01v25.168h1.597l.126-1.144c1.387 1.026 3.203 1.527 5.524 1.527 5.54 0 8.716-3.716 8.716-10.198 0-6.64-3.014-10.15-8.716-10.15" fill="#525252"/><path d="M108.91 14.884c-2.06 0-3.566.446-4.607 1.362-.33.29-.517.736-.517 1.227v10.83c0 .482.185.925.508 1.22 1.04.947 2.552 1.407 4.616 1.407 5.724 0 6.58-5.042 6.58-8.048 0-5.382-2.153-7.998-6.58-7.998zm0 16.582c-2.204 0-3.832-.506-4.977-1.548-.433-.394-.682-.983-.682-1.614v-10.83c0-.646.255-1.24.7-1.63 1.143-1.007 2.766-1.496 4.96-1.496 4.787 0 7.114 2.79 7.114 8.534 0 7.47-4.457 8.584-7.114 8.584zm-5.74-.404l.375.277c1.34.99 3.096 1.473 5.365 1.473 5.37 0 8.45-3.62 8.45-9.93 0-6.465-2.923-9.882-8.45-9.882-2.202 0-3.917.445-5.24 1.356l-.42.29V7.072c0-.577-.478-1.047-1.065-1.047l-2.367.118v.976l1.904.148.208.047V32.43h1.09l.15-1.368zm5.74 2.286c-2.184 0-3.927-.432-5.308-1.32l-.103.938h-2.106V7.77l-2.112-.153V5.633l2.888-.143c.898 0 1.616.71 1.616 1.582v6.576c1.35-.795 3.032-1.183 5.124-1.183 5.878 0 8.984 3.602 8.984 10.417 0 6.652-3.275 10.466-8.984 10.466zM177.95 31.257c-1.263 0-1.44-.07-3.572-2.566l-5.625-6.617 6.836-6.45c.67-.642.67-.642 2.342-.84l.678-.08V13.1h-7.034v1.6l2.098.17-6.476 6.104c-.026.02-.137.056-.29.056h-1.595l-.002-13.935c0-.74-.643-1.365-1.424-1.365l-2.825.138v1.52l2.214.16c.042.007.075.014.1.02V30.902l-.026.007-2.283.172v1.647h6.562v-1.65l-2.217-.16c-.042-.008-.073-.015-.097-.022V22.93h1.535c.105 0 .204.046.27.126l5.726 6.766c1.935 2.293 2.87 3.227 4.33 3.227.584 0 .975-.083 1.19-.25l.28-.207v-1.336h-.694z" fill="#525252"/><path d="M165.045 22.663h1.803c.184 0 .357.08.475.22l5.725 6.765c1.88 2.227 2.778 3.133 4.127 3.133.64 0 .912-.104 1.026-.192l.175-.13v-.933h-.425c-1.404 0-1.65-.174-3.775-2.66l-5.79-6.813 7.02-6.623c.736-.705.802-.713 2.496-.912l.442-.053v-1.097h-6.498v1.085l2.452.2-6.915 6.516c-.128.1-.33.127-.473.127h-1.862l-.002-14.202c0-.595-.53-1.098-1.157-1.098l-2.557.126V7.14l1.963.14c.082.013.122.023.152.03l.197.055v23.523l.036.24-.31.047-2.035.152v1.132h6.026v-1.133l-2.003-.147c-.05-.01-.085-.018-.112-.025l-.216-.058.016-.222v-8.212zm12.13 10.654c-1.575 0-2.543-.96-4.536-3.322l-5.725-6.766c-.017-.02-.04-.03-.067-.03h-1.267l.002 7.462 2.312.167v2.165h-7.097V30.83l2.308-.173.002-22.855-2.314-.164V5.613l3.08-.15c.93 0 1.705.747 1.705 1.632l.003 13.666 1.327.002c.067 0 .12-.01.145-.017l6-5.656-1.744-.143v-2.115h7.57v2.11l-.915.108c-1.58.186-1.58.186-2.19.767l-6.652 6.276 5.462 6.425c2.112 2.47 2.23 2.47 3.368 2.47h.96v1.74l-.385.287c-.267.206-.696.302-1.35.302zM26.747 21.59c-3.437-1.015-4.655-1.946-4.655-3.555 0-.763.372-1.54 1.02-2.128.567-.517 1.626-1.133 3.44-1.133 1.288 0 2.53.32 3.69.947.26.14.397.315.41.517L30.83 19h1.727l.114-5.347h-1.62l-.045.144c-.883-.445-2.395-.997-4.454-.997-3.1 0-6.397 1.835-6.397 5.235 0 3.11 2.324 4.404 6.073 5.485 3.007.87 5.497 1.77 5.497 3.954 0 1.994-2.203 3.615-4.91 3.615-1.473 0-2.8-.367-3.947-1.088-.46-.29-.79-.77-.903-1.32l-.383-1.872h-1.71l.376 5.86 1.58.02.09-.56c.02-.14.04-.268.056-.385 1.133.66 2.78 1.318 4.84 1.318 3.84 0 6.85-2.455 6.85-5.59 0-3.774-3.346-4.794-6.915-5.882" fill="#525252"/><path d="M21.763 31.313l.344.2c1.004.585 2.636 1.282 4.706 1.282 3.69 0 6.58-2.337 6.58-5.32 0-3.578-3.115-4.528-6.723-5.628-3.578-1.057-4.846-2.055-4.846-3.812 0-.838.404-1.686 1.107-2.326.604-.55 1.722-1.204 3.622-1.204 1.334 0 2.62.33 3.82.98.427.23.534.526.548.733l.16 2.51h1.215l.102-4.81h-1.15l-.082.258-.28-.14c-.877-.443-2.34-.97-4.333-.97-2.973 0-6.13 1.74-6.13 4.967 0 2.94 2.248 4.18 5.878 5.228 3.113.902 5.69 1.84 5.69 4.21 0 2.142-2.322 3.884-5.177 3.884-1.524 0-2.9-.38-4.09-1.13-.522-.326-.895-.87-1.022-1.492l-.34-1.657h-1.204l.34 5.328 1.102.013.165-1.107zm5.05 2.018c-1.967 0-3.56-.594-4.633-1.163l-.126.793-2.06-.023-.41-6.395H21.8l.427 2.086c.1.478.384.896.783 1.146 1.104.695 2.384 1.047 3.805 1.047 2.56 0 4.642-1.5 4.642-3.346 0-1.997-2.402-2.856-5.304-3.696-3.867-1.116-6.265-2.466-6.265-5.743 0-3.575 3.435-5.503 6.667-5.503 1.898 0 3.346.457 4.292.89l.012-.037h2.088l-.124 5.882h-2.243l-.19-3.013c-.008-.104-.1-.205-.27-.297-1.122-.607-2.32-.915-3.565-.915-1.73 0-2.727.578-3.26 1.063-.593.54-.933 1.242-.933 1.93 0 1.46 1.168 2.325 4.463 3.3h.002c3.653 1.113 7.103 2.165 7.103 6.14 0 3.284-3.125 5.856-7.115 5.856zM53.164 30.875v-.027l.004-12.043c0-2.143-.395-3.523-1.278-4.476-.996-1.076-2.594-1.576-5.03-1.576-3.01 0-5.06.884-6.366 1.78v-.195c0-.746-.612-1.352-1.382-1.352l-2.743.14v1.51l2.15.156.058.013-.03 16.06v.013c-.007.003-.016.005-.025.007l-2.284.17v1.65h6.56v-1.65l-2.215-.16c-.042-.008-.074-.016-.097-.023V17.943c0-.592.277-1.144.757-1.515 1.56-1.202 3.345-1.762 5.616-1.762 3.66 0 4.308 1.018 4.36 4.266l.004 11.937v.01c-.007.003-.016.005-.025.007l-2.284.17v1.65h6.562v-1.65l-2.22-.16c-.04-.008-.07-.016-.094-.022" fill="#525252"/><path d="M49.184 32.438h6.026v-1.13l-2.003-.148c-.048-.01-.085-.02-.113-.026l-.214-.058.017-.22.003-12.05c0-2.07-.372-3.395-1.206-4.295-.942-1.015-2.478-1.488-4.833-1.488-3.05 0-5.063.942-6.215 1.733l-.42.288v-.704c0-.598-.5-1.084-1.113-1.084l-2.476.127v1.006l1.936.14.072.017.202.05-.03 16.27.023.218-.297.07-2.036.152v1.13h6.026v-1.13l-1.968-.143c-.084-.014-.123-.024-.153-.033l-.204-.06.012-.212V17.943c0-.676.315-1.306.862-1.727 1.61-1.24 3.445-1.818 5.78-1.818 3.865 0 4.572 1.187 4.626 4.53l.004 11.926.035.21-.308.09-2.036.153v1.13zm6.562.536H48.65V30.81l2.306-.173-.004-11.705c-.05-3.097-.592-3.998-4.09-3.998-2.21 0-3.943.543-5.454 1.707-.414.32-.65.794-.65 1.303l-.002 12.7 2.313.166v2.164H35.97V30.81l2.31-.174.028-15.59-2.21-.16v-2.012l2.997-.154c.825 0 1.503.58 1.64 1.338 1.256-.768 3.257-1.572 6.124-1.572 2.515 0 4.176.528 5.226 1.66.933 1.007 1.35 2.444 1.35 4.66l-.003 11.835 2.313.17v2.164zM156.626 30.875v-.027l.003-12.043c0-2.143-.395-3.523-1.278-4.476-.996-1.076-2.594-1.576-5.03-1.576-3.01 0-5.06.884-6.367 1.78v-.195c0-.746-.61-1.352-1.38-1.352h-.002l-2.742.14v1.51l2.15.156.06.012-.03 16.062v.012l-.026.007-2.283.17v1.65h6.563v-1.65l-2.216-.16c-.042-.008-.074-.016-.098-.023V17.943c0-.592.276-1.144.757-1.515 1.56-1.202 3.345-1.762 5.616-1.762 3.66 0 4.307 1.018 4.36 4.266l.003 11.937v.01l-.026.007-2.282.17v1.65h6.562v-1.65l-2.22-.16c-.04-.008-.07-.016-.094-.022" fill="#525252"/><path d="M152.646 32.438h6.026v-1.13l-1.972-.144c-.08-.014-.117-.023-.145-.03l-.206-.057.008-.217.268.013-.267-.018.002-12.05c0-2.07-.372-3.394-1.206-4.294-.942-1.015-2.478-1.488-4.833-1.488-3.05 0-5.064.942-6.216 1.733l-.42.288v-.704c0-.598-.5-1.084-1.113-1.084l-2.476.127v1.006l2 .155.21.047-.03 16.276.024.23-.298.056-2.035.153v1.13h6.025v-1.13l-1.968-.143c-.084-.014-.124-.024-.153-.033l-.205-.06.012-.212V17.943c0-.676.315-1.306.862-1.727 1.61-1.24 3.445-1.818 5.78-1.818 3.865 0 4.572 1.187 4.626 4.53l.004 11.94.03.234-.303.052-2.034.153v1.13zm6.56.536h-7.095V30.81l2.308-.174-.004-11.704c-.05-3.097-.592-3.998-4.09-3.998-2.21 0-3.943.543-5.454 1.707-.414.32-.65.794-.65 1.303l-.002 12.7 2.313.166v2.164h-7.096V30.81l2.31-.174.027-15.59-2.207-.16v-2.012l2.996-.154c.824 0 1.502.58 1.638 1.338 1.257-.768 3.258-1.572 6.125-1.572 2.514 0 4.175.528 5.225 1.66.933 1.007 1.35 2.444 1.35 4.66l-.003 11.836 2.312.167v2.164z" fill="#525252"/><g transform="translate(59.56 .255)"><mask id="b" fill="#fff"><use xlink:href="#a"/></mask><path d="M7.236 19.394c.214-1.016.563-1.983 1.028-2.88.277-.533.5-1.094.626-1.68.058-.266.1-.54.1-.78 0-2.438-1.975-4.415-4.41-4.415-1.836 0-3.41 1.122-4.073 2.72-.2-.798-.306-1.633-.3-2.493C.246 4.425 4.634.065 10.072.065c5.285 0 9.6 4.16 9.85 9.388.108 2.234-.68 4.287-1.883 6.14-1.57 2.42-3.353 4.686-3.353 7.714 0 4.385 2.864 8.1 6.82 9.377-1.046.3-2.154.456-3.3.44C12.2 33.047 7.25 28.235 7 22.23c-.04-.976.044-1.926.236-2.836" fill="#EF533D" mask="url(#b)"/></g><path d="M84.074 14.613c0-.532-.43-.963-.963-.963-.53 0-.962.43-.962.963 0 .533.432.964.963.964.533 0 .964-.43.964-.964" fill="#EF533D"/><path d="M82.732 4.358c0 .01-.003.02-.004.032l.015-.03-.01-.002z" fill="#EA553F"/><path d="M86.896 25.997c-.086-1.69.892-3.184 2.344-3.84v-.042c-.406-.08-.826-.122-1.256-.122-3.613 0-6.54 2.93-6.54 6.547 0 1.413.448 2.72 1.208 3.79 2.025-.94 3.727-2.46 4.894-4.347-.377-.575-.613-1.25-.65-1.986M88.266 10.5c.252-.65.392-1.355.392-2.093 0-1.062-.29-2.053-.79-2.908-.187 1.35-.727 2.58-1.526 3.6l-.054.09c-.345-.182-.718-.364-1.12-.547-.298-.152-.563-.313-.802-.48-1.007-.586-1.764-1.553-2.07-2.706-.19.628-.29 1.294-.29 1.984 0 2.283 1.112 4.304 2.825 5.55l.02.012c.353.273.69.556 1.01.87 1.265 1.236 2.243 2.767 2.823 4.48.594-.8 1.004-1.746 1.167-2.775.053-.328.08-.665.08-1.008 0-1.79-.485-3.02-1.664-4.07" fill="#EF533D"/></g></svg>