<?xml version="1.0" encoding="UTF-8" standalone="no"?>
<!DOCTYPE svg PUBLIC "-//W3C//DTD SVG 1.1//EN" "http://www.w3.org/Graphics/SVG/1.1/DTD/svg11.dtd">
<svg width="100%" height="100%" viewBox="0 0 256 152" version="1.1" xmlns="http://www.w3.org/2000/svg" xmlns:xlink="http://www.w3.org/1999/xlink" xml:space="preserve" style="fill-rule:evenodd;clip-rule:evenodd;stroke-linejoin:round;stroke-miterlimit:1.41421;">
    <g transform="matrix(1,0,0,1,-1068,0)">
        <g id="Logo_Colors_RGB" transform="matrix(1,0,0,1,1068,0)">
            <rect x="0" y="0" width="256" height="152" style="fill:none;"/>
            <g transform="matrix(1,0,0,1,-1068,0)">
                <path d="M1181.5,94.365C1179.22,95.415 1176.68,96 1174,96C1164.07,96 1156,87.934 1156,78L1156,57L1164,57L1164,78C1164,84.071 1168.48,89 1174,89C1176.99,89 1179.67,87.558 1181.5,85.273L1181.5,94.365Z" style="fill:rgb(137,204,83);"/>
            </g>
            <g transform="matrix(1,0,0,1,-1068,0)">
                <path d="M1117,40L1117,60.003C1120.34,57.49 1124.5,56 1129,56C1132.24,56 1135.29,56.77 1138,58.138L1138,67.554C1135.71,64.767 1132.3,63 1128.5,63C1121.6,63 1116,68.825 1116,76C1116,83.175 1121.6,89 1128.5,89C1132.3,89 1135.71,87.233 1138,84.446L1138,93.862C1135.29,95.23 1132.24,96 1129,96C1124.22,96 1119.83,94.319 1116.39,91.517L1116,95L1109,95L1109,77L1109.03,77C1109.01,76.669 1109,76.335 1109,76L1109,40L1117,40Z" style="fill:rgb(35,134,71);"/>
            </g>
            <g transform="matrix(1,0,0,1,-1068,0)">
                <path d="M1123.5,56.767C1125.25,56.268 1127.09,56 1129,56C1140.04,56 1149,64.962 1149,76C1149,87.038 1140.04,96 1129,96C1127.09,96 1125.25,95.732 1123.5,95.233L1123.5,87.917C1125.03,88.613 1126.72,89 1128.5,89C1135.4,89 1141,83.175 1141,76C1141,68.825 1135.4,63 1128.5,63C1126.72,63 1125.03,63.387 1123.5,64.083L1123.5,56.767Z" style="fill:rgb(47,155,71);"/>
            </g>
            <g transform="matrix(1,0,0,1,-1068,0)">
                <path d="M1138,58.138C1144.52,61.434 1149,68.198 1149,76C1149,83.802 1144.52,90.566 1138,93.862L1138,84.446C1139.87,82.173 1141,79.223 1141,76C1141,72.777 1139.87,69.827 1138,67.554L1138,58.138Z" style="fill:rgb(98,182,79);"/>
            </g>
            <rect x="0" y="0" width="256" height="152" style="fill:none;"/>
            <g transform="matrix(1,0,0,1,-1068,0)">
                <path d="M1167,85.852C1168.8,87.799 1171.28,89 1174,89C1179.52,89 1184,84.071 1184,78L1184,57L1192,57L1192,78C1192,87.934 1183.93,96 1174,96C1171.52,96 1169.15,95.496 1167,94.586L1167,85.852Z" style="fill:rgb(61,184,173);"/>
            </g>
            <g transform="matrix(1,0,0,1,-1068,0)">
                <path d="M1181.5,85.273C1183.06,83.333 1184,80.787 1184,78L1184,57L1192,57L1192,78C1192,85.259 1187.69,91.519 1181.5,94.365L1181.5,85.273Z" style="fill:rgb(51,148,215);"/>
            </g>
            <g transform="matrix(1,0,0,1,-1068,0)">
                <path d="M1225,66.148C1223.2,64.201 1220.72,63 1218,63C1212.48,63 1208,67.929 1208,74L1208,95L1200,95L1200,74C1200,64.066 1208.07,56 1218,56C1220.48,56 1222.85,56.504 1225,57.414L1225,66.148Z" style="fill:rgb(40,114,188);"/>
            </g>
            <g transform="matrix(1,0,0,1,-1068,0)">
                <path d="M1210.5,57.635C1212.78,56.585 1215.32,56 1218,56C1227.93,56 1236,64.066 1236,74L1236,95L1228,95L1228,74C1228,67.929 1223.52,63 1218,63C1215.01,63 1212.33,64.442 1210.5,66.727L1210.5,57.635Z" style="fill:rgb(29,92,132);"/>
            </g>
            <g transform="matrix(1,0,0,1,-1068,0)">
                <path d="M1225,57.414C1231.46,60.147 1236,66.548 1236,74L1236,95L1228,95L1228,74C1228,70.926 1226.85,68.144 1225,66.148L1225,57.414Z" style="fill:rgb(153,50,51);"/>
            </g>
            <g transform="matrix(1,0,0,1,-1068,0)">
                <path d="M1268.5,95.233C1266.75,95.732 1264.91,96 1263,96C1251.96,96 1243,87.038 1243,76C1243,64.962 1251.96,56 1263,56C1264.91,56 1266.75,56.268 1268.5,56.767L1268.5,64.083C1266.97,63.387 1265.28,63 1263.5,63C1256.6,63 1251,68.825 1251,76C1251,83.175 1256.6,89 1263.5,89C1265.28,89 1266.97,88.613 1268.5,87.917L1268.5,95.233Z" style="fill:rgb(225,48,48);"/>
            </g>
            <g transform="matrix(1,0,0,1,-1068,0)">
                <path d="M1254,58.138C1256.71,56.77 1259.76,56 1263,56C1267.78,56 1272.17,57.681 1275.61,60.483L1276,57L1283,57L1283,75L1282.98,75C1282.99,75.331 1283,75.665 1283,76L1283,112L1275,112L1275,91.997C1271.66,94.51 1267.5,96 1263,96C1259.76,96 1256.71,95.23 1254,93.862L1254,84.446C1256.29,87.233 1259.7,89 1263.5,89C1270.4,89 1276,83.175 1276,76C1276,68.825 1270.4,63 1263.5,63C1259.7,63 1256.29,64.767 1254,67.554L1254,58.138Z" style="fill:rgb(242,136,37);"/>
            </g>
            <g transform="matrix(1,0,0,1,-1068,0)">
                <path d="M1268.5,56.767C1271.13,57.52 1273.54,58.799 1275.61,60.483L1276,57L1283,57L1283,75L1282.98,75C1282.99,75.331 1283,75.665 1283,76L1283,112L1275,112L1275,91.997C1273.07,93.445 1270.88,94.554 1268.5,95.233L1268.5,87.917C1272.91,85.909 1276,81.326 1276,76C1276,70.674 1272.91,66.091 1268.5,64.083L1268.5,56.767Z" style="fill:rgb(245,200,54);"/>
            </g>
        </g>
    </g>
</svg>
