<svg version="1.1" id="NIBC-Logo" xmlns="http://www.w3.org/2000/svg" xmlns:xlink="http://www.w3.org/1999/xlink" x="0px" y="0px" viewBox="0 0 174.8 35.6" width="174.8" height="35.6" style="enable-background:new 0 0 174.8 35.6;" xml:space="preserve">
    <g id="symbol">
        <path fill="#E82C20" d="M35.5,34.8c-1.8,0-11.9,0.1-16.1,0.7L17.8,1c5.2,0,10.9-0.1,15.8-0.7L35.5,34.8z"></path>
        <path fill="#11A4DD" d="M0,34.8c1.8,0,11.9,0.1,16.1,0.7L17.7,1C12.6,1,6.8,0.9,1.9,0.3L0,34.8z"></path>
	</g>
    <g id="logotxt">
        <path fill="#0C274B" d="M54.4,4.8c-0.1-1.6-0.1-2.9-0.1-4.1c0.9,0.1,1.7,0.2,2.2,0.2c0.6,0,1.3-0.1,2.2-0.2c3.6,4,7.2,8,10.7,11.9 c3.5,3.9,7.2,7.8,10.9,11.9v-4.3v-4.8c0-1.6,0-3.2,0-4.8c0-1.6,0-3,0-4.4c0-1.3,0-2.5-0.1-3.4c0-1-0.1-1.6-0.2-1.9 c0.9,0.1,1.7,0.2,2.2,0.2c0.6,0,1.3-0.1,2.2-0.2c-0.2,3-0.3,5.8-0.4,8.2c-0.1,2.4-0.2,4.7-0.3,6.9c-0.1,2.2-0.1,4.3-0.1,6.4 c0,2.1,0,4.4,0,6.8v6c-0.7-0.1-1.3-0.1-2-0.1c-0.7,0-1.4,0-1.9,0.1c-6.8-8-14.1-16-21.8-24.1c0,1,0,1.9-0.1,2.9c0,1,0,1.9,0,2.9v5.8 c0,2,0,3.7,0,5.1c0,1.4,0,2.6,0.1,3.5c0,1,0.1,1.8,0.1,2.4c0,0.6,0.1,1.1,0.1,1.5c-0.4-0.1-0.8-0.1-1.2-0.1c-0.4,0-0.8,0-1.1,0 c-0.8,0-1.5,0-2.3,0.1c0.1-0.3,0.1-1.2,0.2-2.8c0.1-1.6,0.2-3.6,0.3-6c0.1-2.3,0.2-4.9,0.3-7.6c0.1-2.7,0.1-5.4,0.1-7.9 C54.5,8.3,54.4,6.4,54.4,4.8z"></path>
        <path fill="#0C274B" d="M95,7.1c-0.1-2.1-0.2-4.3-0.3-6.5c0.6,0.1,1.2,0.1,1.8,0.2c0.7,0,1.4,0.1,2.2,0.1c0.8,0,1.6,0,2.2-0.1 c0.7,0,1.3-0.1,1.8-0.2c-0.1,2.2-0.2,4.3-0.3,6.5c-0.1,2.1-0.1,4.6-0.1,7.4v6.8c0,2.8,0,5.2,0.1,7.4c0.1,2.1,0.2,4.2,0.3,6.3 c-0.6-0.1-1.2-0.1-1.8-0.1c-0.7,0-1.4,0-2.2,0c-0.8,0-1.6,0-2.2,0c-0.7,0-1.3,0-1.8,0.1c0.1-2.1,0.2-4.2,0.3-6.3 c0.1-2.1,0.1-4.6,0.1-7.4v-6.8C95.1,11.7,95.1,9.3,95,7.1z"></path>
        <path fill="#0C274B" d="M114,7.1c-0.1-2.1-0.2-4.3-0.3-6.5c0.6,0.1,1.2,0.1,1.9,0.2c0.7,0,1.4,0.1,2.2,0.1c1.4,0,2.9,0,4.5-0.1 c1.6-0.1,3.1-0.1,4.5-0.1c1.5,0,2.9,0.1,4.1,0.4c1.2,0.3,2.3,0.8,3.2,1.4c0.9,0.6,1.6,1.4,2.1,2.4c0.5,1,0.7,2.1,0.7,3.5 c0,1.4-0.3,2.5-0.9,3.5c-0.6,1-1.3,1.8-2.1,2.4c-0.8,0.6-1.7,1.2-2.7,1.5c-1,0.4-1.8,0.6-2.6,0.7v0.1c0.8,0,1.7,0.2,2.7,0.5 c1,0.3,2,0.8,2.9,1.5c0.9,0.7,1.7,1.5,2.4,2.6c0.6,1,1,2.3,1,3.8c0,1.8-0.3,3.3-1,4.6c-0.6,1.3-1.5,2.3-2.6,3.1 c-1.1,0.8-2.3,1.4-3.7,1.7c-1.4,0.3-2.8,0.5-4.3,0.5c-1.3,0-2.6,0-3.7,0c-1.1,0-2.3,0-3.6,0c-0.9,0-1.8,0-2.8,0 c-0.9,0-1.7,0-2.3,0.1c0.2-2.1,0.3-4.2,0.3-6.3c0.1-2.1,0.1-4.6,0.1-7.4v-6.8C114.1,11.7,114.1,9.3,114,7.1z M129.2,7.1 c-0.2-0.7-0.5-1.3-0.9-1.8c-0.4-0.5-1-0.9-1.6-1.2c-0.7-0.3-1.5-0.5-2.5-0.5c-0.7,0-1.2,0-1.5,0c-0.3,0-0.6,0.1-0.9,0.1 c-0.1,1.2-0.1,2.5-0.2,3.7c0,1.3-0.1,2.3-0.1,3.2c0,0.9,0,1.7,0,2.6c0,0.8,0,1.6,0,2.5h2.2c0.7,0,1.4-0.1,2.1-0.4 c0.7-0.3,1.3-0.7,1.8-1.2c0.5-0.5,1-1.2,1.3-2c0.3-0.8,0.5-1.7,0.5-2.8C129.5,8.6,129.4,7.8,129.2,7.1z M128.3,20.2 c-1.1-1.1-2.6-1.7-4.6-1.7c-0.5,0-0.9,0-1.2,0c-0.3,0-0.7,0-1,0c0,0.7,0,1.4,0,2.2c0,0.7,0,1.6,0,2.7c0,0.8,0,1.6,0,2.4 c0,0.8,0,1.6,0,2.4c0,0.8,0,1.5,0,2.2c0,0.7,0,1.2,0,1.6c0.5,0,0.9,0,1.3,0.1c0.4,0,0.9,0,1.4,0c0.7,0,1.4-0.1,2.1-0.4 c0.7-0.3,1.2-0.7,1.7-1.3c0.5-0.6,0.9-1.3,1.2-2.1c0.3-0.8,0.5-1.8,0.5-2.9C129.8,23.1,129.3,21.4,128.3,20.2z"></path>
        <path fill="#0C274B" d="M173.8,31.4c-0.2,0.7-0.3,1.4-0.4,2.1c-2.7,1.4-6.1,2-10.2,2c-2.9,0-5.5-0.4-7.8-1.2c-2.3-0.8-4.2-2-5.8-3.4 c-1.6-1.5-2.8-3.2-3.6-5.3c-0.8-2-1.2-4.2-1.2-6.6c0-3.5,0.5-6.4,1.6-8.8c1.1-2.4,2.5-4.4,4.3-5.9c1.8-1.5,3.9-2.6,6.3-3.3 c2.4-0.7,4.9-1,7.5-1c0.9,0,1.8,0.1,2.7,0.2c1,0.1,1.9,0.3,2.8,0.5c0.9,0.2,1.8,0.5,2.6,0.8c0.8,0.3,1.5,0.6,2.1,1 c-0.3,0.8-0.6,1.7-0.8,2.5c-0.2,0.8-0.3,1.7-0.4,2.6H173c-1.3-1.6-2.6-2.7-3.9-3.4c-1.3-0.7-2.9-1-4.7-1c-1.3,0-2.7,0.3-4,0.9 c-1.3,0.6-2.6,1.5-3.7,2.7c-1.1,1.2-2,2.8-2.7,4.7c-0.7,1.9-1,4.2-1,6.9c0,2.6,0.3,4.8,1,6.6c0.7,1.8,1.6,3.3,2.7,4.4 c1.1,1.1,2.4,2,3.8,2.5c1.4,0.5,2.8,0.8,4.3,0.8c0.8,0,1.6-0.1,2.4-0.3c0.8-0.2,1.6-0.4,2.4-0.7c0.8-0.3,1.6-0.7,2.3-1.2 c0.7-0.5,1.3-1,1.9-1.5l0.6,0.4C174.3,30,174,30.7,173.8,31.4z"></path>
	</g>
</svg>
